<svg width="24" height="27" viewBox="0 0 24 27" fill="none" xmlns="http://www.w3.org/2000/svg">
<path d="M11.6416 0C14.7145 4.19291e-05 17.6701 1.17172 19.8564 3.27051C22.0444 5.37093 23.2832 8.22968 23.2832 11.2207C23.2832 15.6164 20.3706 19.542 17.7002 22.248C16.3391 23.6273 14.9819 24.7484 13.9668 25.5244C13.4583 25.9131 13.0326 26.2167 12.7324 26.4248C12.5825 26.5288 12.4636 26.6091 12.3809 26.6641C12.3395 26.6916 12.3068 26.7128 12.2842 26.7275C12.2729 26.7349 12.2642 26.741 12.2578 26.7451C12.2546 26.7472 12.2519 26.7488 12.25 26.75C12.2491 26.7506 12.2487 26.7516 12.248 26.752H12.2471L11.6416 25.8076L12.2461 26.7529C11.8774 26.9887 11.4047 26.9888 11.0361 26.7529V26.752H11.0352C11.0345 26.7515 11.0332 26.7506 11.0322 26.75C11.0304 26.7488 11.0283 26.747 11.0254 26.7451C11.019 26.741 11.0094 26.7349 10.998 26.7275C10.9754 26.7128 10.9435 26.6914 10.9023 26.6641C10.8196 26.609 10.6999 26.5289 10.5498 26.4248C10.2497 26.2167 9.8247 25.913 9.31641 25.5244C8.30131 24.7484 6.94408 23.6273 5.58301 22.248C2.91257 19.542 1.85363e-05 15.6164 0 11.2207C0 8.22976 1.23796 5.37091 3.42578 3.27051C5.61216 1.17158 8.56855 0 11.6416 0ZM11.6416 2.24414C9.13484 2.24414 6.73962 3.20087 4.98047 4.88965C3.22289 6.57693 2.24414 8.85511 2.24414 11.2207C2.24416 14.6794 4.59148 18.0472 7.18066 20.6709C8.44938 21.9565 9.72244 23.0094 10.6797 23.7412C11.0573 24.0299 11.3853 24.2662 11.6416 24.4473C11.898 24.2662 12.2259 24.0299 12.6035 23.7412C13.5608 23.0094 14.8338 21.9565 16.1025 20.6709C18.6917 18.0472 21.039 14.6794 21.0391 11.2207C21.0391 8.85519 20.0602 6.57692 18.3027 4.88965C16.5436 3.2009 14.1483 2.24418 11.6416 2.24414ZM11.6416 6.7832C14.1748 6.78329 16.3936 8.69193 16.3936 11.2412C16.3934 13.7904 14.1747 15.6982 11.6416 15.6982C9.10844 15.6982 6.8898 13.7904 6.88965 11.2412C6.88965 8.69188 9.10835 6.7832 11.6416 6.7832ZM11.6416 9.02734C10.1654 9.02734 9.13379 10.1061 9.13379 11.2412C9.13394 12.3763 10.1656 13.4541 11.6416 13.4541C13.1176 13.454 14.1493 12.3762 14.1494 11.2412C14.1494 10.1061 13.1177 9.02742 11.6416 9.02734Z" fill="#007BFF"/>
</svg>
