<svg width="26" height="25" viewBox="0 0 26 25" fill="none" xmlns="http://www.w3.org/2000/svg">
<path d="M12.8105 0C19.8417 0.000151719 25.6201 5.48344 25.6201 12.3428C25.6201 19.2021 19.8417 24.6854 12.8105 24.6855C5.77927 24.6855 2.57106e-05 19.2022 0 12.3428C0 5.48335 5.77925 0 12.8105 0ZM12.8105 2.24414C6.93143 2.24414 2.24414 6.8082 2.24414 12.3428C2.24417 17.8773 6.93145 22.4414 12.8105 22.4414C18.6895 22.4413 23.376 17.8772 23.376 12.3428C23.376 6.8083 18.6895 2.24429 12.8105 2.24414ZM13.1484 4.61035C13.7679 4.61062 14.2705 5.11288 14.2705 5.73242V11.6309L18.3018 13.5312C18.8619 13.7955 19.1027 14.4641 18.8389 15.0244C18.5748 15.5847 17.9061 15.8251 17.3457 15.5615L12.6699 13.3574C12.2771 13.1722 12.0264 12.7771 12.0264 12.3428V5.73242C12.0264 5.11272 12.5287 4.61035 13.1484 4.61035Z" fill="#007BFF"/>
</svg>
