<svg width="26" height="25" viewBox="0 0 26 25" fill="none" xmlns="http://www.w3.org/2000/svg">
<path d="M24.3677 17.8634V21.2296C24.369 21.5421 24.3023 21.8514 24.1719 22.1377C24.0415 22.4241 23.8502 22.6811 23.6104 22.8923C23.3705 23.1036 23.0873 23.2644 22.779 23.3646C22.4706 23.4647 22.1438 23.5019 21.8196 23.4737C18.223 23.0986 14.7682 21.9187 11.7327 20.029C8.90867 18.3062 6.51436 16.0077 4.71983 13.2966C2.7445 10.3694 1.51521 7.03658 1.13156 3.56828C1.10235 3.25799 1.14076 2.94527 1.24435 2.65001C1.34794 2.35476 1.51443 2.08344 1.73323 1.85334C1.95202 1.62324 2.21833 1.4394 2.51519 1.31352C2.81206 1.18763 3.13297 1.12247 3.45751 1.12218H6.96396C7.5312 1.11682 8.08111 1.30965 8.5112 1.66473C8.94129 2.01982 9.22221 2.51292 9.3016 3.05213C9.4496 4.12939 9.72407 5.18712 10.1198 6.20514C10.277 6.60675 10.3111 7.04322 10.2178 7.46284C10.1246 7.88245 9.90806 8.26762 9.5938 8.5727L8.1094 9.99772C9.77328 12.8069 12.1961 15.1328 15.1223 16.7301L16.6067 15.3051C16.9245 15.0034 17.3257 14.7955 17.7628 14.706C18.1999 14.6165 18.6546 14.6492 19.0729 14.8002C20.1334 15.18 21.2352 15.4435 22.3573 15.5856C22.9251 15.6625 23.4436 15.937 23.8143 16.357C24.1849 16.777 24.3819 17.3131 24.3677 17.8634Z" stroke="#007BFF" stroke-width="2.24413" stroke-linecap="round" stroke-linejoin="round"/>
</svg>
