<svg width="142" height="169" viewBox="0 0 142 169" fill="none" xmlns="http://www.w3.org/2000/svg">
<path fill-rule="evenodd" clip-rule="evenodd" d="M140.623 85.6199L140.548 85.9989L140.497 86.3821C137.435 109.56 120.08 130.796 101.352 147.099C92.226 155.043 83.2773 161.382 76.6011 165.734C74.6615 166.999 72.9219 168.091 71.4353 169C70.4474 168.396 69.3476 167.711 68.1516 166.948C62.5648 163.385 54.9407 158.165 46.8282 151.566C30.295 138.116 13.0872 120.019 5.66502 99.6061L5.57299 99.353L5.46969 99.1043C1.95014 90.6316 0 81.3205 0 71.5204C0 32.0208 31.7878 0 71 0C110.212 0 142 32.0208 142 71.5204C142 76.3576 141.525 81.0711 140.623 85.6199Z" fill="#007BFF"/>
</svg>
